<svg xmlns="http://www.w3.org/2000/svg" viewBox="0 0 24 24" width="24" height="24">
  <path fill="#fff" d="M12.007 2c-5.32 0-9.65 4.33-9.65 9.65a9.6 9.6 0 0 0 1.25 4.79l-1.32 4.86 4.98-1.3a9.61 9.61 0 0 0 4.74 1.25c5.32 0 9.65-4.33 9.65-9.65S17.327 2 12.007 2z" />
  <path fill="#25d366" d="M12.007 3.585c-4.444 0-8.061 3.617-8.061 8.062a7.99 7.99 0 0 0 1.23 4.225l-.78 2.87 2.936-.77a8.03 8.03 0 0 0 4.675 1.34c4.444 0 8.061-3.617 8.061-8.062s-3.617-8.062-8.061-8.062zm4.846 11.51c-.22.62-1.07 1.11-1.7 1.18-.44.05-1.02.09-2.94-.72-2.47-1.02-4.06-3.53-4.18-3.7-.12-.17-.97-1.3-.97-2.47s.62-1.8.85-2.04c.23-.24.49-.3.65-.3h.47c.15 0 .36 0 .54.45.24.55.8 1.94.87 2.08.07.13.11.3.03.47-.09.18-.13.3-.26.45-.13.16-.28.35-.4.47-.14.15-.29.3-.12.59.17.29.76 1.25 1.62 2.02 1.11 1 2.05 1.32 2.35 1.46.3.14.47.12.65-.08.18-.2.74-.86.94-1.15.2-.29.4-.25.68-.15.28.1 1.76.83 2.06.97.3.15.5.22.57.35.07.13.07.74-.15 1.35z" />
</svg>
